<svg width="107" height="40" viewBox="0 0 107 40" fill="none" xmlns="http://www.w3.org/2000/svg">
<path fill-rule="evenodd" clip-rule="evenodd" d="M19.3931 24.7381V33.1377L9.69653 39.0413V18L19.3931 24.7381Z" fill="#6590F9"/>
<path fill-rule="evenodd" clip-rule="evenodd" d="M1.33514e-05 0V12.96L9.70001 6.3952L1.33514e-05 0Z" fill="#537AE3"/>
<path fill-rule="evenodd" clip-rule="evenodd" d="M9.69653 6.39578V27.0414V39.0001L0 32.94V12.7357L9.69653 6.39578Z" fill="#2962EF"/>
<path d="M33.504 19.304C34.608 19.304 35.592 19.584 36.456 20.144C37.32 20.688 37.992 21.456 38.472 22.448C38.952 23.424 39.192 24.536 39.192 25.784C39.192 27.048 38.952 28.176 38.472 29.168C37.992 30.144 37.32 30.912 36.456 31.472C35.592 32.016 34.608 32.288 33.504 32.288C32.688 32.288 31.928 32.128 31.224 31.808C30.536 31.472 29.944 31.008 29.448 30.416V32H25.368V15.224H29.448V21.176C29.944 20.584 30.536 20.128 31.224 19.808C31.928 19.472 32.688 19.304 33.504 19.304ZM32.28 28.904C33.16 28.904 33.88 28.616 34.44 28.04C35 27.448 35.28 26.696 35.28 25.784C35.28 24.888 35 24.152 34.44 23.576C33.88 22.984 33.16 22.688 32.28 22.688C31.448 22.688 30.768 22.976 30.24 23.552C29.712 24.128 29.448 24.872 29.448 25.784C29.448 26.696 29.712 27.448 30.24 28.04C30.768 28.616 31.448 28.904 32.28 28.904ZM53.5678 19.592V32H49.5118V30.584C49.1278 31.112 48.6158 31.528 47.9758 31.832C47.3358 32.136 46.6318 32.288 45.8638 32.288C44.9838 32.288 44.1998 32.088 43.5118 31.688C42.8238 31.272 42.2798 30.704 41.8798 29.984C41.4958 29.248 41.3038 28.416 41.3038 27.488V19.592H45.1918V26.576C45.1918 27.264 45.3838 27.824 45.7678 28.256C46.1678 28.688 46.6798 28.904 47.3038 28.904C47.9278 28.904 48.4478 28.696 48.8638 28.28C49.2798 27.864 49.4878 27.352 49.4878 26.744L49.5118 26.816V19.592H53.5678ZM63.9621 19.304C64.8421 19.304 65.6261 19.512 66.3141 19.928C67.0021 20.328 67.5381 20.896 67.9221 21.632C68.3221 22.352 68.5221 23.176 68.5221 24.104V32H64.6341V25.016C64.6341 24.328 64.4341 23.768 64.0341 23.336C63.6501 22.904 63.1461 22.688 62.5221 22.688C61.8981 22.688 61.3781 22.896 60.9621 23.312C60.5461 23.728 60.3381 24.24 60.3381 24.848L60.3141 24.776V32H56.2581V19.592H60.3141V21.008C60.6981 20.48 61.2101 20.064 61.8501 19.76C62.4901 19.456 63.1941 19.304 63.9621 19.304ZM84.4603 15.224V32H80.3803V30.416C79.8843 31.008 79.2843 31.472 78.5803 31.808C77.8923 32.128 77.1403 32.288 76.3243 32.288C75.2203 32.288 74.2363 32.016 73.3723 31.472C72.5083 30.912 71.8363 30.144 71.3563 29.168C70.8763 28.176 70.6363 27.048 70.6363 25.784C70.6363 24.536 70.8763 23.424 71.3563 22.448C71.8363 21.456 72.5083 20.688 73.3723 20.144C74.2363 19.584 75.2203 19.304 76.3243 19.304C77.1403 19.304 77.8923 19.472 78.5803 19.808C79.2843 20.128 79.8843 20.584 80.3803 21.176V15.224H84.4603ZM77.5483 28.904C78.3803 28.904 79.0603 28.616 79.5883 28.04C80.1163 27.448 80.3803 26.696 80.3803 25.784C80.3803 24.872 80.1163 24.128 79.5883 23.552C79.0603 22.976 78.3803 22.688 77.5483 22.688C76.6683 22.688 75.9483 22.984 75.3883 23.576C74.8283 24.152 74.5483 24.888 74.5483 25.784C74.5483 26.696 74.8283 27.448 75.3883 28.04C75.9483 28.616 76.6683 28.904 77.5483 28.904ZM87.2441 15.224H91.3241V32H87.2441V15.224ZM100.038 29C100.518 29 101.014 28.904 101.526 28.712C102.038 28.52 102.478 28.264 102.846 27.944L105.246 30.368C104.702 30.928 103.95 31.392 102.99 31.76C102.03 32.112 101.086 32.288 100.158 32.288C98.8942 32.288 97.7502 32.008 96.7262 31.448C95.7182 30.888 94.9262 30.112 94.3502 29.12C93.7742 28.128 93.4862 27.008 93.4862 25.76C93.4862 24.528 93.7662 23.424 94.3262 22.448C94.8862 21.456 95.6542 20.688 96.6302 20.144C97.6222 19.584 98.7342 19.304 99.9662 19.304C101.934 19.304 103.462 19.984 104.55 21.344C105.654 22.688 106.206 24.544 106.206 26.912H97.3502C97.5422 27.552 97.8702 28.064 98.3342 28.448C98.8142 28.816 99.3822 29 100.038 29ZM100.038 22.568C99.4302 22.568 98.8942 22.736 98.4302 23.072C97.9662 23.408 97.6222 23.864 97.3982 24.44H102.438C102.262 23.864 101.966 23.408 101.55 23.072C101.134 22.736 100.63 22.568 100.038 22.568Z" fill="white"/>
</svg>
